:SAMPLES-PER-SECOND 30
:FULLY-SPECIFIED
:DEGREES
1024
root  -35.0646 39.1321 -18.2384 -8.72412 -15.6781 -2.54408
RightUpLeg  -3.62665 -21.4637 -1.96899
RightLeg  32.7052 1.43368 0.74676
RightFoot  -16.9451 -0.140288 -0.514078
RightToes  0.00048216 0.542163 -0.142577
Spine  35.4807 -4.06726 13.7315
Spine1  10.5413 1.60643 -4.62218
HEad  -36.4884 38.3083 -38.8963
LeftShoulder1  10.8512 -16.9505 -46.2684
LeftArm  4.82395 6.22593 -35.4582
LeftForeArm  122.302 -79.3885 -114.105
LeftHand  -0.25398 0.0180481 5.50724
RightShoulder  5.65797 10.7783 33.6682
RightArm  2.5936 -10.4285 34.4103
RightForeArm  79.6119 75.5833 124.695
RightHand  -6.29167 13.6637 -37.4398
LeftUpLeg  -14.1627 4.19982 0.90286
LeftLeg  -2.42916 24.9166 -8.37587
LeftFoot  7.1286 0.680062 -4.45642
LeftToes  1.06245e-005 4.65856e-005 -8.18504e-006
1025
root  -34.8577 39.5559 -18.9693 -7.64258 -9.5603 -1.8681
RightUpLeg  -3.86091 -26.2013 -2.97926
RightLeg  28.9256 0.506167 0.0647069
RightFoot  -14.542 -0.096525 0.091762
RightToes  0.00048216 0.542163 -0.142577
Spine  32.959 -3.29312 13.4476
Spine1  10.2394 1.8575 -4.50064
HEad  -33.9279 36.6935 -37.4056
LeftShoulder1  10.9454 -17.0404 -46.4711
LeftArm  6.28626 6.5144 -34.9063
LeftForeArm  118.066 -79.6093 -110.601
LeftHand  -0.25398 0.0180481 5.50724
RightShoulder  5.55367 10.5727 33.5075
RightArm  2.49372 -12.6093 34.5714
RightForeArm  79.9282 75.4379 125.446
RightHand  -6.69506 14.4501 -38.1758
LeftUpLeg  -15.1328 5.96083 -0.550849
LeftLeg  2.69076 23.6823 -6.41999
LeftFoot  6.18168 0.417234 -2.93808
LeftToes  1.06245e-005 4.65856e-005 -8.18504e-006
1026
root  -34.5932 39.9713 -19.5673 -5.83203 -4.10736 -0.256409
RightUpLeg  -5.22283 -29.8727 -4.46988
RightLeg  25.9323 -0.564477 -0.592935
RightFoot  -12.3468 -0.075591 0.845758
RightToes  0.00048216 0.542163 -0.142577
Spine  29.4996 -2.04947 12.3595
Spine1  10.2797 2.3521 -4.66496
HEad  -30.8703 35.5107 -36.1246
LeftShoulder1  10.8566 -16.973 -46.239
LeftArm  7.6413 6.87752 -34.4725
LeftForeArm  114.639 -79.7116 -108.158
LeftHand  -0.25398 0.0180481 5.50724
RightShoulder  5.50486 10.516 33.3201
RightArm  2.39457 -15.1211 34.9152
RightForeArm  80.4262 75.1529 126.837
RightHand  -7.41965 15.8499 -39.4221
LeftUpLeg  -16.7702 12.3866 -4.25282
LeftLeg  8.11894 14.8619 -3.24162
LeftFoot  4.44789 0.144202 -1.23984
LeftToes  1.06245e-005 4.65856e-005 -8.18504e-006
1027
root  -34.24 40.3291 -20.0672 -4.17517 1.11792 1.39342
RightUpLeg  -5.91709 -33.0885 -6.53253
RightLeg  23.1465 -1.95622 -0.810409
RightFoot  -10.39 -0.0812842 1.34812
RightToes  0.00048216 0.542163 -0.142577
Spine  26.4987 -1.08513 11.3148
Spine1  10.1988 2.81684 -5.1107
HEad  -27.577 34.8698 -35.1827
LeftShoulder1  10.6803 -16.8201 -45.8178
LeftArm  8.63379 7.51052 -34.2123
LeftForeArm  112.649 -79.759 -106.763
LeftHand  -0.25398 0.0180481 5.50724
RightShoulder  5.47819 10.5246 33.1066
RightArm  2.68317 -17.6185 35.1112
RightForeArm  81.4626 74.8003 128.516
RightHand  -7.45158 15.8832 -39.5084
LeftUpLeg  -18.0788 19.7502 -7.89262
LeftLeg  12.8269 5.96539 -0.155935
LeftFoot  2.64888 0.0812435 -0.804883
LeftToes  1.06245e-005 4.65856e-005 -8.18504e-006
1028
root  -33.8056 40.5894 -20.5119 -3.06946 6.08264 2.28444
RightUpLeg  -5.14231 -32.1242 -8.89233
RightLeg  20.3047 -7.5678 -0.387842
RightFoot  -8.35412 -0.110343 2.02011
RightToes  0.00048216 0.542163 -0.142577
Spine  24.5007 -0.538827 11.0484
Spine1  9.77806 3.29756 -5.79034
HEad  -24.3869 34.6148 -34.2578
LeftShoulder1  10.495 -16.637 -45.419
LeftArm  9.19133 8.38124 -34.0103
LeftForeArm  112.533 -79.7519 -106.777
LeftHand  -0.25398 0.0180481 5.50724
RightShoulder  5.45249 10.5 32.992
RightArm  3.28867 -19.8509 35.2631
RightForeArm  83.3613 74.3862 130.447
RightHand  -7.0435 15.0637 -38.9097
LeftUpLeg  -18.0181 22.1233 -7.79442
LeftLeg  16.8561 3.75212 1.82472
LeftFoot  1.55067 0.0903718 -0.879817
LeftToes  1.06245e-005 4.65856e-005 -8.18504e-006
1029
root  -33.2972 40.7535 -20.9112 -2.19385 10.5392 2.45497
RightUpLeg  -3.98382 -26.7382 -10.8828
RightLeg  17.8298 -17.1257 0.34795
RightFoot  -6.33098 -0.182515 3.18464
RightToes  0.00048216 0.542163 -0.142577
Spine  22.6326 -0.0424218 11.2376
Spine1  9.55486 3.84427 -6.29932
HEad  -21.5745 34.5412 -32.912
LeftShoulder1  10.3502 -16.4221 -45.2708
LeftArm  9.29502 9.27004 -33.6535
LeftForeArm  114.24 -79.6429 -108.613
LeftHand  -0.25398 0.0180481 5.50724
RightShoulder  5.4544 10.4785 33.0654
RightArm  3.91786 -21.395 35.5764
RightForeArm  84.9439 74.0239 132.011
RightHand  -7.29467 15.4895 -39.4087
LeftUpLeg  -16.8058 20.5222 -4.49347
LeftLeg  19.8691 5.82556 2.6464
LeftFoot  0.512289 0.0140278 -0.155815
LeftToes  1.06245e-005 4.65856e-005 -8.18504e-006
1030
root  -32.7013 40.8396 -21.2731 -1.25171 14.6703 2.31897
RightUpLeg  -3.29693 -22.0952 -12.2529
RightLeg  15.9014 -25.4092 0.944816
RightFoot  -4.66224 -0.28582 4.36077
RightToes  0.00048216 0.542163 -0.142577
Spine  20.285 0.472603 11.3025
Spine1  9.85706 4.27673 -6.42532
HEad  -19.1835 34.5095 -30.9946
LeftShoulder1  10.2737 -16.2292 -45.3805
LeftArm  8.87431 10.1702 -33.1578
LeftForeArm  116.924 -79.4342 -111.597
LeftHand  -0.25398 0.0180481 5.50724
RightShoulder  5.52381 10.5311 33.4118
RightArm  4.31012 -21.9427 36.0513
RightForeArm  85.0624 73.9549 132.27
RightHand  -8.01729 16.821 -40.6104
LeftUpLeg  -15.417 19.365 -0.928089
LeftLeg  20.9534 6.22588 2.94702
LeftFoot  -0.758125 -0.0487967 0.567095
LeftToes  1.06245e-005 4.65856e-005 -8.18504e-006
